<?xml version="1.0" encoding="UTF-8"?>
<svg xmlns="http://www.w3.org/2000/svg" version="1.1" width="500" height="500" viewBox="0 0 500 500"><rect x="0" y="0" width="500" height="500" fill="#ffffff"/><g transform="scale(20)"><g transform="translate(0,0)"><defs><linearGradient gradientUnits="userSpaceOnUse" x1="0" y1="0" x2="25" y2="0" id="g1"><stop offset="0%" stop-color="#5e24ff"/><stop offset="100%" stop-color="#09aad3"/></linearGradient></defs><path fill-rule="evenodd" d="M10 0L10 2L11 2L11 0ZM12 0L12 1L13 1L13 2L12 2L12 4L13 4L13 2L16 2L16 3L14 3L14 5L11 5L11 6L10 6L10 4L11 4L11 3L8 3L8 4L9 4L9 5L8 5L8 7L9 7L9 8L6 8L6 9L8 9L8 13L7 13L7 12L5 12L5 13L3 13L3 14L2 14L2 12L4 12L4 11L0 11L0 17L1 17L1 14L2 14L2 17L5 17L5 16L6 16L6 17L8 17L8 19L9 19L9 20L8 20L8 25L9 25L9 23L11 23L11 25L13 25L13 24L12 24L12 23L13 23L13 22L11 22L11 18L10 18L10 16L11 16L11 17L12 17L12 18L13 18L13 19L12 19L12 21L13 21L13 20L14 20L14 22L15 22L15 21L16 21L16 22L18 22L18 23L17 23L17 25L18 25L18 24L22 24L22 25L25 25L25 24L24 24L24 23L25 23L25 21L23 21L23 22L22 22L22 23L21 23L21 21L22 21L22 19L25 19L25 12L23 12L23 14L22 14L22 15L23 15L23 16L24 16L24 18L22 18L22 19L21 19L21 17L22 17L22 16L17 16L17 15L19 15L19 14L20 14L20 15L21 15L21 13L22 13L22 12L18 12L18 13L17 13L17 11L19 11L19 10L20 10L20 11L21 11L21 9L22 9L22 8L21 8L21 9L20 9L20 8L19 8L19 10L18 10L18 8L17 8L17 6L16 6L16 8L14 8L14 7L15 7L15 6L14 6L14 5L15 5L15 4L16 4L16 5L17 5L17 2L16 2L16 1L17 1L17 0L15 0L15 1L13 1L13 0ZM8 1L8 2L9 2L9 1ZM9 6L9 7L10 7L10 6ZM11 6L11 7L12 7L12 9L11 9L11 8L10 8L10 9L9 9L9 12L11 12L11 13L10 13L10 15L11 15L11 14L14 14L14 13L15 13L15 12L16 12L16 11L17 11L17 9L13 9L13 7L14 7L14 6L13 6L13 7L12 7L12 6ZM0 8L0 10L2 10L2 9L3 9L3 10L5 10L5 11L7 11L7 10L5 10L5 8ZM23 8L23 9L24 9L24 10L25 10L25 9L24 9L24 8ZM10 9L10 11L11 11L11 9ZM12 9L12 10L13 10L13 11L12 11L12 13L14 13L14 12L13 12L13 11L16 11L16 10L13 10L13 9ZM22 10L22 11L23 11L23 10ZM6 13L6 14L3 14L3 15L6 15L6 16L8 16L8 17L9 17L9 16L8 16L8 15L9 15L9 14L7 14L7 13ZM6 14L6 15L7 15L7 14ZM15 14L15 15L14 15L14 16L16 16L16 15L17 15L17 14ZM12 15L12 17L13 17L13 18L14 18L14 17L13 17L13 15ZM15 17L15 18L16 18L16 17ZM17 17L17 20L20 20L20 17ZM9 18L9 19L10 19L10 18ZM18 18L18 19L19 19L19 18ZM14 19L14 20L16 20L16 19ZM18 21L18 22L19 22L19 23L20 23L20 21ZM23 22L23 23L22 23L22 24L23 24L23 23L24 23L24 22ZM15 23L15 24L16 24L16 23ZM0 0L0 7L7 7L7 0ZM1 1L1 6L6 6L6 1ZM2 2L2 5L5 5L5 2ZM18 0L18 7L25 7L25 0ZM19 1L19 6L24 6L24 1ZM20 2L20 5L23 5L23 2ZM0 18L0 25L7 25L7 18ZM1 19L1 24L6 24L6 19ZM2 20L2 23L5 23L5 20Z" fill="url(#g1)"/></g></g></svg>
